<?xml version="1.0" encoding="utf-8"?>
<!-- Generator: Adobe Illustrator 18.1.0, SVG Export Plug-In . SVG Version: 6.00 Build 0)  -->
<svg version="1.1" id="Layer_1" xmlns="http://www.w3.org/2000/svg" xmlns:xlink="http://www.w3.org/1999/xlink" x="0px" y="0px"
	 viewBox="155 -26.6 338.4 80.6" style="enable-background:new 155 -26.6 338.4 80.6;" xml:space="preserve">
<g>
	<g>
		<path d="M155-26.6h18.9c3.6,0,6.3,0.9,8.3,2.4c2.2,1.8,3.4,4.4,3.4,7.6c0,3.7-1.5,6-4.5,7.4V-9c4,1.3,6.3,4.9,6.3,9.2
			c0,4.1-1.6,7.3-4.2,9.3c-2.2,1.6-5,2.3-8.8,2.3H155V-26.6z M172-11.6c2,0,3.5-1.1,3.5-3.4c0-2.2-1.5-3.3-3.6-3.3h-6.5v6.6
			C165.5-11.6,172-11.6,172-11.6z M172.9,3.3c2.3,0,4-1.4,4-3.9c0-2.7-1.8-3.9-4-3.9h-7.4v7.9H172.9z"/>
		<path d="M189.1-26.6h9.9v38.5h-9.9V-26.6z"/>
		<path d="M201-1.8c0-8.7,5.6-14.5,14.3-14.5s14.2,5.9,14.2,14.5c0,8.7-5.5,14.5-14.2,14.5C206.6,12.7,201,6.9,201-1.8z M219.6-1.8
			c0-4.8-1.5-7.8-4.5-7.8s-4.4,3-4.4,7.8c0,4.8,1.4,7.9,4.4,7.9C218.1,6,219.6,3,219.6-1.8z"/>
		<path d="M230.6-1.8c0-8.7,5.6-14.5,14.3-14.5S259-10.5,259-1.8c0,8.7-5.5,14.5-14.2,14.5C236.2,12.7,230.6,6.9,230.6-1.8z
			 M249.2-1.8c0-4.8-1.5-7.8-4.5-7.8c-3,0-4.4,3-4.4,7.8c0,4.8,1.4,7.9,4.4,7.9C247.7,6,249.2,3,249.2-1.8z"/>
		<path d="M261-15.6h9.2v4.1h0.2c1.8-3.2,4.3-4.9,8.3-4.9c3.5,0,6.1,1.7,7.4,4.7h0.2c2.2-3.6,5.1-4.7,8.5-4.7c6.4,0,9.1,4.7,9.1,11
			v17.2h-9.6V-3.6c0-2.8-0.9-4.6-3.3-4.6c-2.4,0-3.6,2.2-3.6,5.2v14.9h-9.6V-3.6c0-2.8-0.9-4.6-3.3-4.6c-2.4,0-3.6,2.2-3.6,5.2v14.9
			H261C261,11.9,261-15.6,261-15.6z"/>
		<path d="M316,8.3h-0.1v3.6h-9.2v-38.5h9.6v13.9h0.2c1.8-2.4,4.3-3.7,7.8-3.7c6.9,0,10.9,6.2,10.9,14.5c0,9.3-4.3,14.7-11.5,14.7
			C320.7,12.8,317.6,11.3,316,8.3z M325.3-2c0-4.4-1.6-7.3-4.5-7.3c-3,0-4.8,2.9-4.8,7.3c0,4.4,1.9,7.3,4.8,7.3S325.3,2.4,325.3-2z"
			/>
		<path d="M336.3-1.9c0-8.6,5.7-14.5,13.9-14.5c4.1,0,7.2,1.3,9.6,3.6c3.2,3.1,4.6,7.9,4.5,13.5h-18.4c0.4,3.4,2,5.2,4.9,5.2
			c1.7,0,3.2-0.8,3.8-2.6h9.3c-1.6,6.3-6.5,9.4-13.4,9.4C342,12.6,336.3,6.9,336.3-1.9z M345.9-4.8h8.8c-0.2-3.3-2-5-4.3-5
			C347.7-9.8,346.2-7.9,345.9-4.8z"/>
		<path d="M375.2-10.9h0.2c2-3.8,4.6-5.3,7.9-5.3c0.8,0,1.3,0.1,1.6,0.3v8.4h-0.2c-5.7-1-9,1.7-9,7.9v11.5H366v-27.4h9.2V-10.9z"/>
		<path d="M385.9,11.9h9.3c0.4,1.2,1.6,2.3,3.9,2.3c3.1,0,4.2-1.9,4.2-4.8v-2h-0.2c-1.5,1.8-3.6,3.1-6.6,3.1
			c-5.9,0-11.1-4.4-11.1-13c0-7.9,4.2-14,10.6-14c3.7,0,5.9,1.5,7.4,3.8h0.2v-3h9.2V8.2c0,4.4-1.5,7.8-3.8,9.8c-2.4,2.1-5.8,3-9.7,3
			C391.9,21,386.8,18,385.9,11.9z M403.7-2.9c0-3.4-1.6-6.2-4.4-6.2c-2.7,0-4.4,2.4-4.4,6.2c0,3.7,1.7,6.3,4.4,6.3
			C402,3.4,403.7,0.7,403.7-2.9z"/>
	</g>
	<g>
		<path d="M155,14.6h18.9c3.6,0,6.3,0.9,8.3,2.4c2.2,1.8,3.4,4.4,3.4,7.6c0,3.7-1.5,6-4.5,7.4v0.2c4,1.3,6.3,4.9,6.3,9.2
			c0,4.1-1.6,7.3-4.2,9.3c-2.2,1.6-5,2.3-8.8,2.3H155V14.6z M172,29.7c2,0,3.5-1.1,3.5-3.4c0-2.2-1.5-3.3-3.6-3.3h-6.5v6.6H172z
			 M172.9,44.6c2.3,0,4-1.4,4-3.9c0-2.7-1.8-3.9-4-3.9h-7.4v7.9H172.9z"/>
		<path d="M206.4,53.1v-3.6h-0.2c-2,2.9-4.5,4.4-8.1,4.4c-6.2,0-9.3-4.3-9.3-10.6V25.6h9.6v15.6c0,3.1,1.2,4.3,3.5,4.3
			c2.5,0,4-1.7,4-4.8v-15h9.6v27.4H206.4z"/>
		<path d="M217.4,44.4h8.9c0.2,2.3,1.5,3.5,3.9,3.5c1.9,0,3.5-0.5,3.5-2.4c0-2.3-2.7-2.4-5.9-3c-4.9-0.8-10-2.2-10-8.7
			c0-6.1,5.5-9.1,11.8-9.1c7.9,0,12,3.1,12.4,8.5h-9.1c-0.3-2-1.8-2.6-3.4-2.6c-1.4,0-2.8,0.6-2.8,2c0,1.6,2.1,2,5.4,2.5
			C237,36.1,243,37,243,44.6c0,6.6-5.7,9.4-12.8,9.4C222.5,54,217.5,50.7,217.4,44.4z"/>
		<path d="M244.9,15.8h9.6v7.7h-9.6V15.8z M244.9,25.6h9.6v27.4h-9.6V25.6z"/>
		<path d="M266.5,29.4h0.2c2.1-3,4.7-4.6,8.4-4.6c6,0,9.1,4.2,9.1,10.5v17.7h-9.6V37.6c0-3.1-1.1-4.7-3.6-4.7c-2.4,0-3.9,2-3.9,5.2
			v15h-9.6V25.6h9.2C266.5,25.6,266.5,29.4,266.5,29.4z"/>
		<path d="M286,39.3c0-8.6,5.7-14.5,13.9-14.5c4.1,0,7.2,1.3,9.6,3.6c3.2,3.1,4.6,7.9,4.5,13.5h-18.4c0.4,3.4,2,5.2,4.9,5.2
			c1.7,0,3.2-0.8,3.8-2.6h9.3c-1.6,6.3-6.5,9.4-13.4,9.4C291.7,53.8,286,48.1,286,39.3z M295.6,36.5h8.8c-0.2-3.3-2-5-4.3-5
			C297.4,31.4,295.9,33.3,295.6,36.5z"/>
		<path d="M314.7,44.4h8.9c0.2,2.3,1.5,3.5,3.9,3.5c1.9,0,3.5-0.5,3.5-2.4c0-2.3-2.7-2.4-5.9-3c-4.9-0.8-10-2.2-10-8.7
			c0-6.1,5.5-9.1,11.8-9.1c7.9,0,12,3.1,12.4,8.5h-9.1c-0.3-2-1.8-2.6-3.4-2.6c-1.4,0-2.8,0.6-2.8,2c0,1.6,2.1,2,5.4,2.5
			c4.7,0.8,10.8,1.7,10.8,9.3c0,6.6-5.7,9.4-12.8,9.4C319.8,54,314.8,50.7,314.7,44.4z"/>
		<path d="M341.2,44.4h8.9c0.2,2.3,1.5,3.5,3.9,3.5c1.9,0,3.5-0.5,3.5-2.4c0-2.3-2.7-2.4-5.9-3c-4.9-0.8-10-2.2-10-8.7
			c0-6.1,5.5-9.1,11.8-9.1c7.9,0,12,3.1,12.4,8.5h-9.1c-0.3-2-1.8-2.6-3.4-2.6c-1.4,0-2.8,0.6-2.8,2c0,1.6,2.1,2,5.4,2.5
			c4.7,0.8,10.8,1.7,10.8,9.3c0,6.6-5.7,9.4-12.8,9.4C346.3,54,341.3,50.7,341.2,44.4z"/>
		<path d="M365.6,25.6h9.8l3.7,15h0.1l3.5-15h8.4l3.5,15.1h0.1l3.7-15.1h9.6l-8.3,27.4h-9.3l-3.7-16h-0.1l-3.7,16h-9.1L365.6,25.6z"
			/>
		<path d="M406.5,39.3c0-8.6,5.7-14.5,13.9-14.5c4.1,0,7.2,1.3,9.6,3.6c3.2,3.1,4.6,7.9,4.5,13.5h-18.4c0.4,3.4,2,5.2,4.9,5.2
			c1.7,0,3.2-0.8,3.8-2.6h9.3c-1.6,6.3-6.5,9.4-13.4,9.4C412.2,53.8,406.5,48.1,406.5,39.3z M416.1,36.5h8.8c-0.2-3.3-2-5-4.3-5
			C418,31.4,416.5,33.3,416.1,36.5z"/>
		<path d="M435.7,39.3c0-8.6,5.7-14.5,13.9-14.5c4.1,0,7.2,1.3,9.6,3.6c3.2,3.1,4.6,7.9,4.5,13.5h-18.4c0.4,3.4,2,5.2,4.9,5.2
			c1.7,0,3.2-0.8,3.8-2.6h9.3c-1.6,6.3-6.5,9.4-13.4,9.4C441.4,53.8,435.7,48.1,435.7,39.3z M445.3,36.5h8.8c-0.2-3.3-2-5-4.3-5
			C447.1,31.4,445.6,33.3,445.3,36.5z"/>
		<path d="M477.3,42.9l-1.9,2.2v8h-9.6V14.6h9.6v19.8l6.7-8.8h10.4l-8.7,10.1l9.7,17.3h-10.8L477.3,42.9z"/>
	</g>
</g>
</svg>
