<?xml version="1.0" encoding="utf-8"?>
<!-- Generator: Adobe Illustrator 18.1.0, SVG Export Plug-In . SVG Version: 6.00 Build 0)  -->
<svg version="1.1" id="Layer_1" xmlns="http://www.w3.org/2000/svg" xmlns:xlink="http://www.w3.org/1999/xlink" x="0px" y="0px"
	 viewBox="116 -30.8 259.4 88.8" style="enable-background:new 116 -30.8 259.4 88.8;" xml:space="preserve">
<style type="text/css">
	.st0{fill:#FFD700;}
</style>
<g>
	<g>
		<path d="M117.4-30.8h18.9c3.6,0,6.3,0.9,8.3,2.4c2.2,1.8,3.4,4.4,3.4,7.6c0,3.7-1.5,6-4.5,7.4v0.2c4,1.3,6.3,4.9,6.3,9.2
			c0,4.1-1.6,7.3-4.2,9.3c-2.2,1.6-5,2.3-8.8,2.3h-19.2V-30.8z M134.4-15.7c2,0,3.5-1.1,3.5-3.4c0-2.2-1.5-3.3-3.6-3.3h-6.5v6.6
			C127.9-15.7,134.4-15.7,134.4-15.7z M135.4-0.8c2.3,0,4-1.4,4-3.9c0-2.7-1.8-3.9-4-3.9h-7.4v7.9H135.4z"/>
		<path d="M151.5-30.8h9.9V7.7h-9.9C151.5,7.7,151.5-30.8,151.5-30.8z"/>
		<path d="M163.4-6c0-8.7,5.6-14.5,14.3-14.5c8.7,0,14.2,5.9,14.2,14.5c0,8.7-5.5,14.5-14.2,14.5C169,8.6,163.4,2.8,163.4-6z M182-6
			c0-4.8-1.5-7.8-4.5-7.8c-3,0-4.4,3-4.4,7.8c0,4.8,1.4,7.9,4.4,7.9C180.5,1.9,182-1.1,182-6z"/>
		<path d="M193-6c0-8.7,5.6-14.5,14.3-14.5c8.7,0,14.2,5.9,14.2,14.5c0,8.7-5.5,14.5-14.2,14.5C198.6,8.6,193,2.8,193-6z M211.6-6
			c0-4.8-1.5-7.8-4.5-7.8s-4.4,3-4.4,7.8c0,4.8,1.4,7.9,4.4,7.9C210.1,1.9,211.6-1.1,211.6-6z"/>
		<path d="M223.4-19.7h9.2v4.1h0.2c1.8-3.2,4.3-4.9,8.3-4.9c3.5,0,6.1,1.7,7.4,4.7h0.2c2.2-3.6,5.1-4.7,8.5-4.7
			c6.4,0,9.1,4.7,9.1,11V7.7h-9.6V-7.8c0-2.8-0.9-4.6-3.3-4.6c-2.4,0-3.6,2.2-3.6,5.2V7.7H240V-7.8c0-2.8-0.9-4.6-3.3-4.6
			c-2.4,0-3.6,2.2-3.6,5.2V7.7h-9.6C223.4,7.7,223.4-19.7,223.4-19.7z"/>
		<path d="M278.4,4.1h-0.1v3.6h-9.2v-38.4h9.6v13.9h0.2c1.8-2.4,4.3-3.7,7.8-3.7c6.9,0,10.9,6.2,10.9,14.5c0,9.3-4.3,14.7-11.5,14.7
			C283.1,8.6,280,7.2,278.4,4.1z M287.7-6.2c0-4.4-1.6-7.3-4.5-7.3c-3,0-4.8,2.9-4.8,7.3c0,4.4,1.9,7.3,4.8,7.3S287.7-1.7,287.7-6.2
			z"/>
		<path d="M298.7-6.1c0-8.6,5.7-14.5,13.9-14.5c4.1,0,7.2,1.3,9.6,3.6c3.2,3.1,4.6,7.9,4.5,13.5h-18.4c0.4,3.4,2,5.2,4.9,5.2
			c1.7,0,3.2-0.8,3.8-2.6h9.3c-1.6,6.3-6.5,9.4-13.4,9.4C304.4,8.5,298.7,2.7,298.7-6.1z M308.3-8.9h8.8c-0.2-3.3-2-5-4.3-5
			C310.1-14,308.6-12.1,308.3-8.9z"/>
		<path d="M337.9-15h0.2c2-3.8,4.6-5.3,7.9-5.3c0.8,0,1.3,0.1,1.6,0.3v8.4h-0.2c-5.7-1-9,1.7-9,7.9V7.7h-9.6v-27.4h9.2V-15z"/>
		<path d="M348.6,7.7h9.3c0.4,1.2,1.6,2.3,3.9,2.3c3.1,0,4.2-1.9,4.2-4.8v-2h-0.2c-1.5,1.8-3.6,3.1-6.6,3.1c-5.9,0-11.1-4.4-11.1-13
			c0-7.9,4.2-14,10.6-14c3.7,0,5.9,1.5,7.4,3.8h0.2v-3h9.2V4c0,4.4-1.5,7.8-3.8,9.8c-2.4,2.1-5.8,3-9.7,3
			C354.6,16.9,349.5,13.9,348.6,7.7z M366.3-7c0-3.4-1.6-6.2-4.4-6.2c-2.7,0-4.4,2.4-4.4,6.2c0,3.7,1.7,6.3,4.4,6.3
			C364.7-0.7,366.3-3.4,366.3-7z"/>
	</g>
	<g>
		<path class="st0" d="M143.6,44.5h-0.1c-2.1,3.7-6.1,5.3-10.6,5.3c-10.5,0-17-8.5-17-20c0-11.6,6.8-20,18.1-20
			c9.5,0,15.6,5,16.7,13.8h-10.5c-0.6-2.8-2.6-4.7-5.9-4.7c-5.1,0-7.7,4.4-7.7,11c0,6.9,3,11.2,8.1,11.2c3.9,0,5.9-2,6.4-5.3H136
			v-7.6h15.6v20.7h-7.1L143.6,44.5z"/>
		<path class="st0" d="M170.3,45.9h-0.1c-1.7,2.6-4.5,3.7-7.9,3.7c-5,0-8.7-2.9-8.7-8.3c0-6.1,4.4-7.8,9.4-8.4c5.5-0.7,7-1.3,7-3.1
			c0-1.5-0.7-2.7-2.8-2.7s-3.2,1.3-3.4,3.3h-9.1c0.2-5.5,4.2-9.9,12.3-9.9c4,0,6.5,0.5,8.5,1.8c2.7,1.8,4,4.6,4,8.3v13.7
			c0,2.3,0.2,3.6,1,4.1v0.4h-9.5C170.8,48.3,170.5,47.4,170.3,45.9z M170.4,39v-2.4c-0.9,0.5-2.1,0.9-3.7,1.3
			c-2.8,0.7-3.7,1.5-3.7,3.1c0,1.8,1.4,2.7,3,2.7C168.2,43.6,170.4,42.2,170.4,39z"/>
		<path class="st0" d="M181.9,35.2c0-9.1,4.7-14.5,11.6-14.5c3.7,0,5.8,1.7,7,3.7h0.2V10.5h9.6v38.5h-9.2v-3.8h-0.1
			c-1.6,3.2-4.3,4.7-7.5,4.7C186.8,49.8,181.9,45.2,181.9,35.2z M201.1,35c0-4.3-1.8-7.2-4.7-7.2c-2.8,0-4.7,2.6-4.7,7.2
			c0,4.8,1.8,7.3,4.7,7.3C199.2,42.3,201.1,39.3,201.1,35z"/>
		<path class="st0" d="M212,21.5h3.2v-1.7c0-3.2,0.8-5.5,2.2-6.9c1.8-1.8,5-2.5,8.6-2.5c1.3,0,2.6,0.1,3.9,0.3v6.5
			c-3.3-0.1-5.1,0-5.1,3.3v1h5.1v6.8h-5.1v20.7h-9.6V28.3H212V21.5z"/>
		<path class="st0" d="M232,10.5h9.9v38.5H232V10.5z"/>
		<path class="st0" d="M246.1,50.4h3.2c2.1,0,3.1-0.5,3.1-2c0-0.9-0.6-2.5-1.2-4.2l-8.3-22.7H253l4.7,16.9h0.1l4.7-16.9h9.6
			l-8.9,27.4c-2.1,6.7-5.3,9.1-10.5,9.1h-6.7L246.1,50.4L246.1,50.4z"/>
	</g>
</g>
</svg>
