<?xml version="1.0" encoding="utf-8"?>
<!-- Generator: Adobe Illustrator 18.1.0, SVG Export Plug-In . SVG Version: 6.00 Build 0)  -->
<svg version="1.1" id="Layer_1" xmlns="http://www.w3.org/2000/svg" xmlns:xlink="http://www.w3.org/1999/xlink" x="0px" y="0px"
	 viewBox="115 -26.4 258.7 80.4" style="enable-background:new 115 -26.4 258.7 80.4;" xml:space="preserve">
<style type="text/css">
	path {fill: #FFFFFF;}
</style>
<g>
	<g>
		<path d="M115.7-26.4h18.9c3.6,0,6.3,0.9,8.3,2.4c2.2,1.8,3.4,4.4,3.4,7.6c0,3.7-1.5,6-4.5,7.4v0.2c4,1.3,6.3,4.9,6.3,9.2
			c0,4.1-1.6,7.3-4.2,9.3c-2.2,1.6-5,2.3-8.8,2.3h-19.2V-26.4z M132.7-11.4c2,0,3.5-1.1,3.5-3.4c0-2.2-1.5-3.3-3.6-3.3h-6.5v6.6
			C126.2-11.4,132.7-11.4,132.7-11.4z M133.6,3.5c2.3,0,4-1.4,4-3.9c0-2.7-1.8-3.9-4-3.9h-7.4v7.9C126.2,3.5,133.6,3.5,133.6,3.5z"
			/>
		<path d="M149.8-26.4h9.9V12h-9.9C149.8,12,149.8-26.4,149.8-26.4z"/>
		<path d="M161.6-1.7c0-8.7,5.6-14.5,14.3-14.5c8.7,0,14.2,5.9,14.2,14.5c0,8.7-5.5,14.5-14.2,14.5C167.3,12.9,161.6,7.1,161.6-1.7z
			 M180.3-1.7c0-4.8-1.5-7.8-4.5-7.8s-4.4,3-4.4,7.8c0,4.8,1.4,7.9,4.4,7.9C178.8,6.2,180.3,3.2,180.3-1.7z"/>
		<path d="M191.3-1.7c0-8.7,5.6-14.5,14.3-14.5c8.7,0,14.2,5.9,14.2,14.5c0,8.7-5.5,14.5-14.2,14.5C196.9,12.9,191.3,7.1,191.3-1.7z
			 M209.9-1.7c0-4.8-1.5-7.8-4.5-7.8s-4.4,3-4.4,7.8c0,4.8,1.4,7.9,4.4,7.9C208.4,6.2,209.9,3.2,209.9-1.7z"/>
		<path d="M221.7-15.4h9.2v4.1h0.2c1.8-3.2,4.3-4.9,8.3-4.9c3.5,0,6.1,1.7,7.4,4.7h0.2c2.2-3.6,5.1-4.7,8.5-4.7
			c6.4,0,9.1,4.7,9.1,11V12h-9.6V-3.5c0-2.8-0.9-4.6-3.3-4.6c-2.4,0-3.6,2.2-3.6,5.2V12h-9.6V-3.5c0-2.8-0.9-4.6-3.3-4.6
			c-2.4,0-3.6,2.2-3.6,5.2V12h-9.6C221.7,12,221.7-15.4,221.7-15.4z"/>
		<path d="M276.7,8.4h-0.1V12h-9.2v-38.5h9.6v13.9h0.2c1.8-2.4,4.3-3.7,7.8-3.7c6.9,0,10.9,6.2,10.9,14.5c0,9.3-4.3,14.7-11.5,14.7
			C281.4,12.9,278.3,11.5,276.7,8.4z M286-1.9c0-4.4-1.6-7.3-4.5-7.3c-3,0-4.8,2.9-4.8,7.3c0,4.4,1.9,7.3,4.8,7.3S286,2.6,286-1.9z"
			/>
		<path d="M297-1.8c0-8.6,5.7-14.5,13.9-14.5c4.1,0,7.2,1.3,9.6,3.6c3.2,3.1,4.6,7.9,4.5,13.5h-18.4c0.4,3.4,2,5.2,4.9,5.2
			c1.7,0,3.2-0.8,3.8-2.6h9.3c-1.6,6.3-6.5,9.4-13.4,9.4C302.7,12.8,297,7,297-1.8z M306.6-4.6h8.8c-0.2-3.3-2-5-4.3-5
			C308.4-9.7,306.9-7.8,306.6-4.6z"/>
		<path d="M336.2-10.7h0.2c2-3.8,4.6-5.3,7.9-5.3c0.8,0,1.3,0.1,1.6,0.3v8.4h-0.2c-5.7-1-9,1.7-9,7.9V12H327v-27.4h9.2V-10.7z"/>
		<path d="M346.9,12.1h9.3c0.4,1.2,1.6,2.3,3.9,2.3c3.1,0,4.2-1.9,4.2-4.8v-2H364c-1.5,1.8-3.6,3.1-6.6,3.1c-5.9,0-11.1-4.4-11.1-13
			c0-7.9,4.2-14,10.6-14c3.7,0,5.9,1.5,7.4,3.8h0.2v-3h9.2V8.3c0,4.4-1.5,7.8-3.8,9.8c-2.4,2.1-5.8,3-9.7,3
			C352.9,21.2,347.8,18.2,346.9,12.1z M364.6-2.7c0-3.4-1.6-6.2-4.4-6.2c-2.7,0-4.4,2.4-4.4,6.2c0,3.7,1.7,6.3,4.4,6.3
			C363,3.6,364.6,0.9,364.6-2.7z"/>
	</g>
	<g>
		<path class="st0" d="M115,14.8h11.1l6.8,24.6h0.1l6.6-24.6h10.7l-11.7,38.5h-11.9L115,14.8z"/>
		<path class="st0" d="M151.4,15.9h9.6v7.7h-9.6V15.9z M151.4,25.8h9.6v27.4h-9.6V25.8z"/>
		<path class="st0" d="M163,39.5c0-8.6,5.7-14.5,13.9-14.5c4.1,0,7.2,1.3,9.6,3.6c3.2,3.1,4.6,7.9,4.5,13.5h-18.4
			c0.4,3.4,2,5.2,4.9,5.2c1.7,0,3.2-0.8,3.8-2.6h9.3c-1.6,6.3-6.5,9.4-13.4,9.4C168.8,54,163,48.2,163,39.5z M172.6,36.6h8.8
			c-0.2-3.3-2-5-4.3-5C174.5,31.6,173,33.4,172.6,36.6z"/>
		<path class="st0" d="M189.7,25.8h9.8l3.7,15h0.1l3.5-15h8.4l3.5,15.1h0.1l3.7-15.1h9.6l-8.3,27.4h-9.3l-3.7-16h-0.1l-3.7,16H198
			L189.7,25.8z"/>
	</g>
</g>
</svg>
