<?xml version="1.0" encoding="utf-8"?>
<!-- Generator: Adobe Illustrator 18.1.0, SVG Export Plug-In . SVG Version: 6.00 Build 0)  -->
<svg version="1.1" id="Layer_1" xmlns="http://www.w3.org/2000/svg" xmlns:xlink="http://www.w3.org/1999/xlink" x="0px" y="0px"
	 viewBox="115 -26.6 258 80.6" style="enable-background:new 115 -26.6 258 80.6;" xml:space="preserve">
<style type="text/css">
	.st0{fill:#5C42AB;}
</style>
<g>
	<g>
		<path d="M115-26.6h18.9c3.6,0,6.3,0.9,8.3,2.4c2.2,1.8,3.4,4.4,3.4,7.6c0,3.7-1.5,6-4.5,7.4V-9c4,1.3,6.3,4.9,6.3,9.2
			c0,4.1-1.6,7.3-4.2,9.3c-2.2,1.6-5,2.3-8.8,2.3H115V-26.6z M132-11.5c2,0,3.5-1.1,3.5-3.4c0-2.2-1.5-3.3-3.6-3.3h-6.5v6.6H132z
			 M132.9,3.3c2.3,0,4-1.4,4-3.9c0-2.7-1.8-3.9-4-3.9h-7.4v7.9H132.9z"/>
		<path d="M149.1-26.6h9.9v38.5h-9.9V-26.6z"/>
		<path d="M161-1.8c0-8.7,5.6-14.5,14.3-14.5s14.2,5.9,14.2,14.5c0,8.7-5.5,14.5-14.2,14.5C166.6,12.7,161,6.9,161-1.8z M179.6-1.8
			c0-4.8-1.5-7.8-4.5-7.8s-4.4,3-4.4,7.8c0,4.8,1.4,7.9,4.4,7.9C178.1,6,179.6,3,179.6-1.8z"/>
		<path d="M190.6-1.8c0-8.7,5.6-14.5,14.3-14.5S219-10.5,219-1.8c0,8.7-5.5,14.5-14.2,14.5C196.2,12.7,190.6,6.9,190.6-1.8z
			 M209.2-1.8c0-4.8-1.5-7.8-4.5-7.8c-3,0-4.4,3-4.4,7.8c0,4.8,1.4,7.9,4.4,7.9C207.7,6,209.2,3,209.2-1.8z"/>
		<path d="M221-15.6h9.2v4.1h0.2c1.8-3.2,4.3-4.9,8.3-4.9c3.5,0,6.1,1.7,7.4,4.7h0.2c2.2-3.6,5.1-4.7,8.5-4.7c6.4,0,9.1,4.7,9.1,11
			v17.2h-9.6V-3.6c0-2.8-0.9-4.6-3.3-4.6c-2.4,0-3.6,2.2-3.6,5.2v14.9h-9.6V-3.6c0-2.8-0.9-4.6-3.3-4.6c-2.4,0-3.6,2.2-3.6,5.2v14.9
			H221C221,11.9,221-15.6,221-15.6z"/>
		<path d="M276,8.3h-0.1v3.6h-9.2v-38.5h9.6v13.9h0.2c1.8-2.4,4.3-3.7,7.8-3.7c6.9,0,10.9,6.2,10.9,14.5c0,9.3-4.3,14.7-11.5,14.7
			C280.7,12.8,277.6,11.3,276,8.3z M285.3-2c0-4.4-1.6-7.3-4.5-7.3c-3,0-4.8,2.9-4.8,7.3c0,4.4,1.9,7.3,4.8,7.3S285.3,2.4,285.3-2z"
			/>
		<path d="M296.3-1.9c0-8.6,5.7-14.5,13.9-14.5c4.1,0,7.2,1.3,9.6,3.6c3.2,3.1,4.6,7.9,4.5,13.5h-18.4c0.4,3.4,2,5.2,4.9,5.2
			c1.7,0,3.2-0.8,3.8-2.6h9.3c-1.6,6.3-6.5,9.4-13.4,9.4C302,12.6,296.3,6.9,296.3-1.9z M305.9-4.8h8.8c-0.2-3.3-2-5-4.3-5
			C307.7-9.8,306.2-7.9,305.9-4.8z"/>
		<path d="M335.5-10.9h0.2c2-3.8,4.6-5.3,7.9-5.3c0.8,0,1.3,0.1,1.6,0.3v8.4h-0.2c-5.7-1-9,1.7-9,7.9v11.5h-9.6v-27.4h9.2V-10.9z"/>
		<path d="M346.2,11.9h9.3c0.4,1.2,1.6,2.3,3.9,2.3c3.1,0,4.2-1.9,4.2-4.8v-2h-0.2c-1.5,1.8-3.6,3.1-6.6,3.1
			c-5.9,0-11.1-4.4-11.1-13c0-7.9,4.2-14,10.6-14c3.7,0,5.9,1.5,7.4,3.8h0.2v-3h9.2V8.2c0,4.4-1.5,7.8-3.8,9.8c-2.4,2.1-5.8,3-9.7,3
			C352.2,21,347.1,18,346.2,11.9z M363.9-2.9c0-3.4-1.6-6.2-4.4-6.2c-2.7,0-4.4,2.4-4.4,6.2c0,3.7,1.7,6.3,4.4,6.3
			C362.3,3.4,363.9,0.7,363.9-2.9z"/>
	</g>
	<g>
		<path class="st0" d="M115,14.6h16.5c9.8,0,14.7,5.4,14.7,13.5c0,7.4-5.3,12.8-12.8,12.8h-7.8v12.1H115V14.6z M125.7,32.5h5.5
			c2.8,0,4.4-1.8,4.4-4.5c0.1-2.7-1.6-4.3-4.5-4.3h-5.4L125.7,32.5L125.7,32.5z"/>
		<path class="st0" d="M146,39.4c0-8.7,5.6-14.5,14.3-14.5c8.7,0,14.2,5.9,14.2,14.5c0,8.7-5.5,14.5-14.2,14.5
			C151.6,53.9,146,48.1,146,39.4z M164.7,39.4c0-4.8-1.5-7.8-4.5-7.8c-3,0-4.4,3-4.4,7.8c0,4.8,1.4,7.9,4.4,7.9
			C163.1,47.3,164.7,44.3,164.7,39.4z"/>
		<path class="st0" d="M176.5,14.6h9.9v38.4h-9.9V14.6z"/>
		<path class="st0" d="M189.4,15.8h9.6v7.7h-9.6V15.8z M189.4,25.6h9.6v27.4h-9.6V25.6z"/>
		<path class="st0" d="M200.5,25.6h3.4v-7.9h9.4v7.9h4.9v6.8h-4.9v10.5c0,2.8,1.8,2.8,4.8,2.6V53c-1.5,0.4-3,0.7-4.7,0.7
			c-6.3,0-9.5-1.9-9.5-8.5V32.4h-3.4V25.6z"/>
		<path class="st0" d="M220.3,15.8h9.6v7.7h-9.6V15.8z M220.3,25.6h9.6v27.4h-9.6V25.6z"/>
		<path class="st0" d="M231.9,39.4c0-8.3,5.5-14.5,14.3-14.5c7.3,0,12.4,4.4,12.9,11.3h-9.3c-0.4-3.2-1.6-4.4-3.7-4.4
			c-3,0-4.4,2.8-4.4,7.7c0,4.8,1.5,7.6,4.5,7.6c2.3,0,3.5-1.4,3.8-4.5h9.3c0,6.4-5.3,11.5-13.1,11.5
			C237.4,53.9,231.9,47.8,231.9,39.4z"/>
		<path class="st0" d="M259.9,44.4h8.9c0.2,2.3,1.5,3.5,3.9,3.5c1.9,0,3.5-0.5,3.5-2.4c0-2.3-2.7-2.4-5.9-3c-4.9-0.8-10-2.2-10-8.7
			c0-6.1,5.5-9.1,11.8-9.1c7.9,0,12,3.1,12.4,8.5h-9.1c-0.3-2-1.8-2.6-3.4-2.6c-1.4,0-2.8,0.6-2.8,2c0,1.6,2.1,2,5.4,2.6
			c4.7,0.8,10.8,1.7,10.8,9.3c0,6.6-5.7,9.4-12.8,9.4C265,54,259.9,50.7,259.9,44.4z"/>
	</g>
</g>
</svg>
